<?xml version="1.0" encoding="utf-8"?>
<svg version="1.1" xmlns:xlink="http://www.w3.org/1999/xlink" width="10px" height="10px" xmlns="http://www.w3.org/2000/svg">
  <g transform="matrix(1 0 0 1 -1353 -372 )">
    <path d="M 1358 372  C 1360.8 372  1363 374.2  1363 377  C 1363 379.8  1360.8 382  1358 382  C 1355.2 382  1353 379.8  1353 377  C 1353 374.2  1355.2 372  1358 372  Z " fill-rule="nonzero" fill="#11b35a" stroke="none" />
    <path d="M 1358 372.5  C 1360.52 372.5  1362.5 374.48  1362.5 377  C 1362.5 379.52  1360.52 381.5  1358 381.5  C 1355.48 381.5  1353.5 379.52  1353.5 377  C 1353.5 374.48  1355.48 372.5  1358 372.5  Z " stroke-width="1" stroke="#ffffff" fill="none" />
  </g>
</svg>