<?xml version="1.0" encoding="utf-8"?>
<svg version="1.1" xmlns:xlink="http://www.w3.org/1999/xlink" width="22px" height="19px" xmlns="http://www.w3.org/2000/svg">
  <g transform="matrix(1 0 0 1 -1132 -199 )">
    <path d="M 6.64511718749986 2.55397321428569  C 5.62289062499985 2.55397321428569  4.94140625 2.04504464285714  4.94140625 1.2816517857143  C 4.94140625 0.518258928571441  5.62289062499985 0.00933035714285779  6.62363281249986 0  L 20.2533203125001 0  C 21.2970312500001 0.00933035714285779  21.978515625 0.518258928571441  21.978515625 1.2816517857143  C 21.978515625 2.04504464285714  21.2970312500001 2.55397321428569  20.2748046875001 2.55397321428569  L 6.64511718749986 2.55397321428569  Z M 21.978515625 9.43150669642856  C 21.978515625 8.6681138392857  21.2970312500001 8.15918526785714  20.2748046875001 8.15918526785714  L 6.64533203125006 8.15918526785714  C 5.62310546875005 8.15918526785714  4.94162109374997 8.6681138392857  4.94162109374997 9.43150669642856  C 4.94162109374997 10.1948995535714  5.62310546875005 10.703828125  6.64533203125006 10.703828125  L 20.2748046875001 10.703828125  C 21.2970312500001 10.703828125  21.978515625 10.1948995535714  21.978515625 9.43150669642856  Z M 21.978515625 17.7158035714286  C 21.978515625 16.9524107142857  21.2970312500001 16.4434821428571  20.2748046875001 16.4434821428571  L 6.64533203125006 16.4434821428571  C 5.62310546875005 16.4434821428571  4.94162109374997 16.9524107142857  4.94162109374997 17.7158035714286  C 4.94162109374997 18.4791964285714  5.62310546875005 18.988125  6.64533203125006 19  L 20.2748046875001 19  C 21.2970312500001 18.988125  21.978515625 18.4791964285714  21.978515625 17.7158035714286  Z M 2.642578125 1.30285714285714  C 2.642578125 0.60011160714285  2.06550781250007 0.0305357142856906  1.353515625 0.0305357142856906  C 0.641523437499927 0.0305357142856906  0.064453125 0.60011160714285  0.064453125 1.30285714285714  C 0.064453125 2.00560267857145  0.641523437499927 2.57517857142855  1.353515625 2.57517857142855  C 2.06550781250007 2.57517857142855  2.642578125 2.00560267857145  2.642578125 1.30285714285714  Z M 2.642578125 9.4457142857143  C 2.642578125 8.74296874999999  2.06550781250007 8.17339285714286  1.353515625 8.17339285714286  C 0.641523437499927 8.17339285714286  0.064453125 8.74296874999999  0.064453125 9.4457142857143  C 0.064453125 10.1484598214286  0.641523437499927 10.7180357142857  1.353515625 10.7180357142857  C 2.06550781250007 10.7180357142857  2.642578125 10.1484598214286  2.642578125 9.4457142857143  Z M 2.62109375 17.7158035714286  C 2.62109375 17.0130580357143  2.04402343750007 16.4434821428571  1.33203125 16.4434821428571  C 0.620039062499927 16.4434821428571  0.04296875 17.0130580357143  0.04296875 17.7158035714286  C 0.04296875 18.4185491071428  0.620039062499927 18.988125  1.33203125 18.988125  C 2.04402343750007 18.988125  2.62109375 18.4185491071428  2.62109375 17.7158035714286  Z " fill-rule="nonzero" fill="#069afe" stroke="none" transform="matrix(1 0 0 1 1132 199 )" />
  </g>
</svg>