<?xml version="1.0" encoding="utf-8"?>
<svg version="1.1" xmlns:xlink="http://www.w3.org/1999/xlink" width="194px" height="92px" xmlns="http://www.w3.org/2000/svg">
  <defs>
    <filter x="1611px" y="336px" width="194px" height="92px" filterUnits="userSpaceOnUse" id="filter44">
      <feOffset dx="5" dy="5" in="SourceAlpha" result="shadowOffsetInner" />
      <feGaussianBlur stdDeviation="2.5" in="shadowOffsetInner" result="shadowGaussian" />
      <feComposite in2="shadowGaussian" operator="atop" in="SourceAlpha" result="shadowComposite" />
      <feColorMatrix type="matrix" values="0 0 0 0 0.474509803921569  0 0 0 0 0.474509803921569  0 0 0 0 0.474509803921569  0 0 0 0.349019607843137 0  " in="shadowComposite" />
    </filter>
    <g id="widget45">
      <path d="M 1643.78671171414 336.5  C 1643.78671171414 336.5  1640.0723044389 337.327666838504  1640.0723044389 337.327666838504  C 1640.0723044389 337.327666838504  1611.58563399318 377  1611.58563399318 377  C 1611.58563399318 377  1640.0723044389 416.672333161496  1640.0723044389 416.672333161496  C 1640.0723044389 416.672333161496  1643.78671171414 417.5  1643.78671171414 417.5  C 1643.78671171414 417.5  1794.5 417.5  1794.5 417.5  C 1794.5 417.5  1794.5 336.5  1794.5 336.5  C 1794.5 336.5  1643.78671171414 336.5  1643.78671171414 336.5  Z " fill-rule="nonzero" fill="#ffffff" stroke="none" />
      <path d="M 1643.78671171414 336.5  C 1643.78671171414 336.5  1640.0723044389 337.327666838504  1640.0723044389 337.327666838504  C 1640.0723044389 337.327666838504  1611.58563399318 377  1611.58563399318 377  C 1611.58563399318 377  1640.0723044389 416.672333161496  1640.0723044389 416.672333161496  C 1640.0723044389 416.672333161496  1643.78671171414 417.5  1643.78671171414 417.5  C 1643.78671171414 417.5  1794.5 417.5  1794.5 417.5  C 1794.5 417.5  1794.5 336.5  1794.5 336.5  C 1794.5 336.5  1643.78671171414 336.5  1643.78671171414 336.5  Z " stroke-width="1" stroke="#069afe" fill="none" />
    </g>
  </defs>
  <g transform="matrix(1 0 0 1 -1611 -336 )">
    <use xlink:href="#widget45" filter="url(#filter44)" />
    <use xlink:href="#widget45" />
  </g>
</svg>